<svg xmlns="http://www.w3.org/2000/svg" width="10.078" height="10.066" viewBox="0 0 10.078 10.066">
    <g data-name="그룹 35">
        <path data-name="패스 6" d="M486.343 532.067a5.059 5.059 0 0 1-5.038-5.04 5.04 5.04 0 0 1 5.038-5.027 4.975 4.975 0 0 1 3.551 1.468 5 5 0 0 1 0 7.119 4.962 4.962 0 0 1-3.551 1.479zm2.019-4.616h-4.039a.425.425 0 0 1-.276-.117.415.415 0 0 1-.121-.307.4.4 0 0 1 .121-.3.422.422 0 0 1 .276-.117h4.039a.473.473 0 0 1 .286.117.455.455 0 0 1 .129.3.467.467 0 0 1-.129.307.476.476 0 0 1-.286.117zm-2.019-4.621a4.184 4.184 0 1 0 2.969 1.225 4.165 4.165 0 0 0-2.969-1.225z" style="fill:#b8bfcc;fill-rule:evenodd" transform="translate(-481.305 -522.001)"/>
    </g>
</svg>
