<svg xmlns="http://www.w3.org/2000/svg" width="18" height="20" viewBox="0 0 18 20">
    <g data-name="그룹 79">
        <path d="M19 3h-1V1h-2v2H8V1H6v2H5a1.991 1.991 0 0 0-1.99 2L3 19a2 2 0 0 0 2 2h14a2.006 2.006 0 0 0 2-2V5a2.006 2.006 0 0 0-2-2zm0 16H5V8h14z" transform="translate(-3 -1)" style="fill:#3b82f6"/>
        <g data-name="그룹 65">
            <g data-name="사각형 2408" transform="translate(5 9)" style="stroke:#3b82f6;fill:#3b82f6">
                <path style="stroke:none" d="M0 0h2v1H0z"/>
                <rect x=".5" y=".5" width="1" style="fill:none"/>
            </g>
            <g data-name="사각형 2409" transform="translate(6 10)" style="stroke:#3b82f6;fill:#3b82f6">
                <path style="stroke:none" d="M0 0h1v6H0z"/>
                <rect x=".5" y=".5" height="5" style="fill:none"/>
            </g>
        </g>
        <g data-name="그룹 64">
            <g data-name="사각형 2410" transform="translate(8 9)" style="stroke:#3b82f6;fill:#3b82f6">
                <path style="stroke:none" d="M0 0h4v1H0z"/>
                <rect x=".5" y=".5" width="3" style="fill:none"/>
            </g>
            <g data-name="사각형 2414" transform="translate(8 15)" style="stroke:#3b82f6;fill:#3b82f6">
                <path style="stroke:none" d="M0 0h4v1H0z"/>
                <rect x=".5" y=".5" width="3" style="fill:none"/>
            </g>
            <g data-name="사각형 2412" transform="translate(8 12)" style="stroke:#3b82f6;fill:#3b82f6">
                <path style="stroke:none" d="M0 0h4v1H0z"/>
                <rect x=".5" y=".5" width="3" style="fill:none"/>
            </g>
            <g data-name="사각형 2411" transform="translate(11 10)" style="stroke:#3b82f6;fill:#3b82f6">
                <path style="stroke:none" d="M0 0h1v3H0z"/>
                <rect x=".5" y=".5" height="2" style="fill:none"/>
            </g>
            <g data-name="사각형 2413" transform="translate(8 13)" style="stroke:#3b82f6;fill:#3b82f6">
                <path style="stroke:none" d="M0 0h1v3H0z"/>
                <rect x=".5" y=".5" height="2" style="fill:none"/>
            </g>
        </g>
    </g>
</svg>
