<svg xmlns="http://www.w3.org/2000/svg" width="12" height="17" viewBox="0 0 12 17">
  <defs>
    <style>
      .cls-1 {
        fill: #989898;
      }
    </style>
  </defs>
  <path id="빼기_4" data-name="빼기 4" class="cls-1" d="M10.5,17h-9A1.565,1.565,0,0,1,0,15.381v-8.1A1.565,1.565,0,0,1,1.5,5.667h.75V4.048A3.912,3.912,0,0,1,6,0,3.912,3.912,0,0,1,9.75,4.048V5.667H10.5A1.565,1.565,0,0,1,12,7.286v8.1A1.565,1.565,0,0,1,10.5,17ZM5.25,12.952v1.619h1.5V12.952Zm0-4.857v3.238h1.5V8.1ZM6,1.538a2.426,2.426,0,0,0-2.325,2.51V5.667h4.65V4.048A2.425,2.425,0,0,0,6,1.538Z"/>
</svg>
