<svg xmlns="http://www.w3.org/2000/svg" width="19" height="19" viewBox="0 0 19 19">
  <defs>
    <style>
      .cls-1 {
        fill: #aab5c7;
      }
    </style>
  </defs>
  <path id="Icon_map-fullscreen" data-name="Icon map-fullscreen" class="cls-1" d="M1.44,7.123V1.44H7.346L9.52,3.092H5.9l3.8,4.03L7.346,9.288,3.505,5.674V9.3ZM14.555,1.44H20.44v5.7L18.788,9.317V5.7L14.656,9.5,12.441,7.245,16,3.505H12.382ZM20.44,14.555V20.44H14.534L12.36,18.788h3.622l-3.8-4.132,2.355-2.216L18.375,16V12.382ZM7.325,20.44H1.44V14.534L3.092,12.36v3.622l4.132-3.8,2.216,2.355L5.877,18.375H9.5Z" transform="translate(-1.44 -1.44)"/>
</svg>
