<svg xmlns="http://www.w3.org/2000/svg" width="34.887" height="38.116" viewBox="0 0 34.887 38.116">
    <defs>
        <clipPath id="jkx1503r0a">
            <path data-name="사각형 2447" style="stroke:#707070;fill:none;stroke-width:1.4px" d="M0 0h34.887v38.116H0z"/>
        </clipPath>
    </defs>
    <g data-name="그룹 54">
        <g data-name="그룹 376" style="clip-path:url(#jkx1503r0a)">
            <path data-name="패스 7402" d="M29.713 12.21a5.165 5.165 0 0 0-.987-.524" transform="translate(-7.657 -2.381)" style="stroke:#3b82f6;stroke-linecap:round;stroke-linejoin:round;fill:none;stroke-width:1.4px"/>
            <path data-name="패스 7403" d="m17.617 11.294-8.571.2a5.433 5.433 0 0 0-5 4.13l-2.966 10.7a6.071 6.071 0 0 0 2.069 6.446l8.459 6.37c1.9 1.433 6.283-.149 6.283-.149l5.738-4.737 2.457-2.028a6.105 6.105 0 0 0 1.814-6.533L26.773 22.2" transform="translate(-.227 -2.301)" style="stroke-dasharray:3.038 5.064;stroke:#3b82f6;stroke-linecap:round;stroke-linejoin:round;fill:none;stroke-width:1.4px"/>
            <path data-name="선 60" transform="translate(25.571 16.868)" style="stroke:#3b82f6;stroke-linecap:round;stroke-linejoin:round;fill:none;stroke-width:1.4px" d="M.363 1.127 0 0"/>
            <path data-name="패스 7404" d="m27.11 22.222-4.7-4.327 12.4-15.863a2.916 2.916 0 0 1 4.342-.387 3.545 3.545 0 0 1 .356 4.714z" transform="translate(-5.974 -.173)" style="stroke:#3b82f6;stroke-linecap:round;stroke-linejoin:round;fill:none;stroke-width:1.4px"/>
            <path data-name="패스 7405" d="m22.142 22.257-.742 6.12 5.441-1.792" transform="translate(-5.704 -4.536)" style="stroke:#3b82f6;stroke-linecap:round;stroke-linejoin:round;fill:none;stroke-width:1.4px"/>
            <path data-name="선 61" transform="translate(26.801 4.459)" style="stroke:#3b82f6;stroke-linecap:round;stroke-linejoin:round;fill:none;stroke-width:1.4px" d="m0 0 4.698 4.327"/>
            <path data-name="선 62" transform="translate(25.288 6.395)" style="stroke:#3b82f6;stroke-linecap:round;stroke-linejoin:round;fill:none;stroke-width:1.4px" d="m0 0 4.698 4.327"/>
        </g>
    </g>
</svg>
