<svg xmlns="http://www.w3.org/2000/svg" width="32.048" height="33.096" viewBox="0 0 32.048 33.096">
    <defs>
        <clipPath id="8mb2eecuea">
            <path data-name="사각형 2449" style="stroke:#707070;fill:none" d="M0 0h32.048v33.096H0z"/>
        </clipPath>
    </defs>
    <g data-name="그룹 56">
        <g data-name="그룹 381">
            <g data-name="그룹 380" style="clip-path:url(#8mb2eecuea)">
                <path data-name="패스 7408" d="M29.583 4.375 10.989 15.2l-6.15-3.717L23.616.85z" transform="translate(-1.554 -.273)" style="stroke:#3b82f6;stroke-linecap:round;stroke-linejoin:round;fill:none"/>
            </g>
        </g>
        <path data-name="패스 7409" d="m4.839 24.4 6.15 3.717 18.594-11.244" transform="translate(-1.554 -5.418)" style="stroke:#3b82f6;stroke-linecap:round;stroke-linejoin:round;fill:none"/>
        <path data-name="선 63" transform="translate(3.285 11.213)" style="stroke:#3b82f6;stroke-linecap:round;stroke-linejoin:round;fill:none" d="M0 0v7.765"/>
        <path data-name="선 64" transform="translate(28.03 4.47)" style="stroke:#3b82f6;stroke-linecap:round;stroke-linejoin:round;fill:none" d="M0 0v6.986"/>
        <path data-name="선 65" transform="translate(9.435 14.93)" style="stroke:#3b82f6;stroke-linecap:round;stroke-linejoin:round;fill:none" d="M0 0v7.765"/>
        <path data-name="선 66" transform="translate(6.36 13.354)" style="stroke:#3b82f6;stroke-linecap:round;stroke-linejoin:round;fill:none" d="M0 0v7.175"/>
        <path data-name="선 67" transform="translate(12.641 13.488)" style="stroke:#3b82f6;stroke-linecap:round;stroke-linejoin:round;fill:none" d="M0 0v7.175"/>
        <path data-name="선 68" transform="translate(15.684 11.389)" style="stroke:#3b82f6;stroke-linecap:round;stroke-linejoin:round;fill:none" d="M0 0v7.175"/>
        <path data-name="선 69" transform="translate(18.726 9.528)" style="stroke:#3b82f6;stroke-linecap:round;stroke-linejoin:round;fill:none" d="M0 0v7.175"/>
        <path data-name="선 70" transform="translate(21.769 8.105)" style="stroke:#3b82f6;stroke-linecap:round;stroke-linejoin:round;fill:none" d="M0 0v7.175"/>
        <path data-name="선 71" transform="translate(24.811 6.179)" style="stroke:#3b82f6;stroke-linecap:round;stroke-linejoin:round;fill:none" d="M0 0v7.175"/>
        <path data-name="선 72" transform="translate(28.03 16.43)" style="stroke:#3b82f6;stroke-linecap:round;stroke-linejoin:round;fill:none" d="M0 0v6.908"/>
        <path data-name="선 73" transform="translate(15.684 23.342)" style="stroke:#3b82f6;stroke-linecap:round;stroke-linejoin:round;fill:none" d="M0 0v6.908"/>
        <path data-name="선 74" transform="translate(18.726 21.55)" style="stroke:#3b82f6;stroke-linecap:round;stroke-linejoin:round;fill:none" d="M0 0v6.908"/>
        <path data-name="선 75" transform="translate(21.769 20.18)" style="stroke:#3b82f6;stroke-linecap:round;stroke-linejoin:round;fill:none" d="M0 0v6.908"/>
        <path data-name="선 76" transform="translate(24.811 18.326)" style="stroke:#3b82f6;stroke-linecap:round;stroke-linejoin:round;fill:none" d="M0 0v6.908"/>
        <g data-name="그룹 383">
            <g data-name="그룹 382" style="clip-path:url(#8mb2eecuea)">
                <path data-name="패스 7410" d="M7 28.5.85 24.787l2.708-1.534" transform="translate(-.273 -7.466)" style="stroke:#3b82f6;stroke-linecap:round;stroke-linejoin:round;fill:none"/>
                <path data-name="선 77" transform="translate(.577 25.085)" style="stroke:#3b82f6;stroke-linecap:round;stroke-linejoin:round;fill:none" d="m0 0 6.15 3.717"/>
                <path data-name="선 78" transform="translate(.577 17.321)" style="stroke:#3b82f6;stroke-linecap:round;stroke-linejoin:round;fill:none" d="M0 0v7.765"/>
            </g>
        </g>
        <path data-name="선 79" transform="translate(6.727 21.037)" style="stroke:#3b82f6;stroke-linecap:round;stroke-linejoin:round;fill:none" d="M0 0v7.765"/>
        <path data-name="선 80" transform="translate(3.652 19.462)" style="stroke:#3b82f6;stroke-linecap:round;stroke-linejoin:round;fill:none" d="M0 0v7.175"/>
        <g data-name="그룹 385">
            <g data-name="그룹 384" style="clip-path:url(#8mb2eecuea)">
                <path data-name="패스 7411" d="m32.385 17.275 3.721 2.2L17.511 30.3l-3.075-1.859" transform="translate(-4.635 -5.547)" style="stroke:#3b82f6;stroke-linecap:round;stroke-linejoin:round;fill:none"/>
                <path data-name="패스 7412" d="m9.908 38.866 6.15 3.717 18.594-11.239" transform="translate(-3.181 -10.064)" style="stroke:#3b82f6;stroke-linecap:round;stroke-linejoin:round;fill:none"/>
            </g>
        </g>
        <path data-name="선 81" transform="translate(6.727 21.037)" style="stroke:#3b82f6;stroke-linecap:round;stroke-linejoin:round;fill:none" d="M0 0v7.765"/>
        <g data-name="그룹 387">
            <g data-name="그룹 386" style="clip-path:url(#8mb2eecuea)">
                <path data-name="선 82" transform="translate(31.471 14.294)" style="stroke:#3b82f6;stroke-linecap:round;stroke-linejoin:round;fill:none" d="M0 0v6.986"/>
                <path data-name="선 83" transform="translate(12.876 24.755)" style="stroke:#3b82f6;stroke-linecap:round;stroke-linejoin:round;fill:none" d="M0 0v7.765"/>
            </g>
        </g>
        <path data-name="선 84" transform="translate(9.801 23.178)" style="stroke:#3b82f6;stroke-linecap:round;stroke-linejoin:round;fill:none" d="M0 0v7.175"/>
    </g>
</svg>
