<svg data-name="그룹 55" xmlns="http://www.w3.org/2000/svg" width="41.999" height="28.668" viewBox="0 0 41.999 28.668">
    <defs>
        <clipPath id="ivy0e30oxa">
            <path data-name="사각형 2448" style="stroke:#707070;fill:none;stroke-width:1.2px" d="M0 0h41.999v28.668H0z"/>
        </clipPath>
    </defs>
    <g data-name="그룹 378" style="clip-path:url(#ivy0e30oxa)">
        <circle data-name="타원 1" cx="5.646" cy="5.646" r="5.646" transform="translate(8.494 .693)" style="stroke:#3b82f6;stroke-linecap:round;stroke-linejoin:round;fill:none;stroke-width:1.2px"/>
        <circle data-name="타원 2" cx="5.646" cy="5.646" r="5.646" transform="translate(23.991 .693)" style="stroke:#3b82f6;stroke-linecap:round;stroke-linejoin:round;fill:none;stroke-width:1.2px"/>
        <path data-name="패스 7406" d="M26.6 25.1c0-3.669-5.763-6.644-12.873-6.644S.85 21.436.85 25.1v6.283H26.6z" transform="translate(-.157 -3.412)" style="stroke:#3b82f6;stroke-linecap:round;stroke-linejoin:round;fill:none;stroke-width:1.2px"/>
        <path data-name="패스 7407" d="M32.425 18.54c-.214-.068.445-.033.67-.045q.653-.034 1.323-.034c7.11 0 12.873 2.975 12.873 6.644v6.283H36.042v-6.463s.123-4.514-3.617-6.385z" transform="translate(-5.985 -3.412)" style="stroke:#3b82f6;stroke-linecap:round;stroke-linejoin:round;fill:none;stroke-width:1.2px"/>
    </g>
</svg>
