<svg xmlns="http://www.w3.org/2000/svg" width="28.121" height="29.024" viewBox="0 0 28.121 29.024">
    <g data-name="그룹 51">
        <g data-name="그룹 90">
            <path data-name="패스 6915" d="M242.086 894.327h-12.5a.624.624 0 0 1 0-1.248h12.5a.624.624 0 1 1 0 1.248z" transform="translate(-221.891 -889.522)" style="fill:#3b82f6"/>
            <path data-name="패스 6916" d="M223.58 894.327h-1.08a.624.624 0 0 1 0-1.248h1.076a.624.624 0 0 1 0 1.248z" transform="translate(-219.23 -889.522)" style="fill:#3b82f6"/>
        </g>
        <path data-name="패스 6917" d="M240.479 895.742h-22.221a.624.624 0 0 1-.624-.624V888a.624.624 0 0 1 .624-.624h22.221a.624.624 0 0 1 .624.624v7.114a.623.623 0 0 1-.624.628zm-21.6-1.248h20.972v-5.866h-20.969z" transform="translate(-217.634 -887.38)" style="fill:#3b82f6"/>
        <g data-name="그룹 91">
            <path data-name="패스 6918" d="M242.086 910.88h-12.5a.624.624 0 0 1 0-1.248h12.5a.624.624 0 0 1 0 1.248z" transform="translate(-221.891 -895.745)" style="fill:#3b82f6"/>
            <path data-name="패스 6919" d="M223.58 910.88h-1.08a.624.624 0 0 1 0-1.248h1.076a.624.624 0 0 1 0 1.248z" transform="translate(-219.23 -895.745)" style="fill:#3b82f6"/>
        </g>
        <path data-name="패스 6920" d="M240.479 912.3h-22.221a.624.624 0 0 1-.624-.624v-7.115a.624.624 0 0 1 .624-.624h22.221a.624.624 0 0 1 .624.624v7.115a.624.624 0 0 1-.624.624zm-21.6-1.248h20.972v-5.872h-20.969z" transform="translate(-217.634 -893.602)" style="fill:#3b82f6"/>
        <g data-name="그룹 92">
            <path data-name="패스 6921" d="M242.086 927.434h-12.5a.624.624 0 1 1 0-1.248h12.5a.624.624 0 1 1 0 1.248z" transform="translate(-221.891 -901.968)" style="fill:#3b82f6"/>
            <path data-name="패스 6922" d="M223.58 927.434h-1.08a.624.624 0 0 1 0-1.248h1.076a.624.624 0 1 1 0 1.248z" transform="translate(-219.23 -901.968)" style="fill:#3b82f6"/>
        </g>
        <path data-name="패스 6923" d="M240.479 928.849h-22.221a.624.624 0 0 1-.624-.624v-7.115a.624.624 0 0 1 .624-.624h22.221a.624.624 0 0 1 .624.624v7.115a.624.624 0 0 1-.624.624zm-21.6-1.248h20.972v-5.866h-20.969z" transform="translate(-217.634 -899.825)" style="fill:#3b82f6"/>
        <path data-name="패스 6924" d="M240.479 912.3h-22.221a.624.624 0 0 1-.624-.624v-7.115a.624.624 0 0 1 .624-.624h22.221a.624.624 0 0 1 .624.624v7.115a.624.624 0 0 1-.624.624zm-21.6-1.248h20.972v-5.872h-20.969z" transform="translate(-217.634 -893.602)" style="fill:#3b82f6"/>
        <path data-name="패스 6925" d="M236.061 903.243a.624.624 0 0 1-.624-.624V899.4a.624.624 0 0 1 1.248 0v3.216a.624.624 0 0 1-.624.627z" transform="translate(-224.326 -891.665)" style="fill:#3b82f6"/>
        <path data-name="패스 6926" d="M236.061 919.018a.624.624 0 0 1-.624-.624v-2.437a.624.624 0 0 1 1.248 0v2.437a.624.624 0 0 1-.624.624z" transform="translate(-224.326 -897.888)" style="fill:#3b82f6"/>
        <path data-name="패스 6927" d="M258.515 918.546a.624.624 0 0 1-.624-.624v-21.441a2.156 2.156 0 0 0-2.154-2.154h-1.874a.624.624 0 0 1 0-1.248h1.874a3.406 3.406 0 0 1 3.4 3.4v21.441a.624.624 0 0 1-.622.626z" transform="translate(-231.018 -889.522)" style="fill:#3b82f6"/>
    </g>
</svg>
