<svg xmlns="http://www.w3.org/2000/svg" width="11.612" height="14.252" viewBox="0 0 11.612 14.252">
    <g data-name="그룹 46">
        <path data-name="패스 7" d="M298.607 151.38h-1.836a.193.193 0 0 1-.2-.2v-.209a.2.2 0 0 1 .2-.2h1.836a.22.22 0 0 1 .206.2v.209a.205.205 0 0 1-.206.2zm1.083-9.57h-.31a.3.3 0 0 1-.307-.3v-.01a.7.7 0 0 0-.7-.7h-.017a.7.7 0 0 0-.7.708v-.008a.307.307 0 0 1-.311.307h-.306a.6.6 0 0 0-.6.6v.022a.6.6 0 0 0 .6.6h2.658a.608.608 0 0 0 .6-.6v-.022a.611.611 0 0 0-.6-.6zm.032 11.817H294.6a.818.818 0 0 1-.826-.819v-9.777a.8.8 0 0 1 .616-.809h1.646a1.129 1.129 0 0 0-.013.209 1.015 1.015 0 0 0 1.013 1.014h2.658a1.033 1.033 0 0 0 1.014-1.036.551.551 0 0 0-.02-.187h1.237c.65 0 1.027.359 1.027.809v6.12c-.069 0-.134-.013-.2-.013a3.058 3.058 0 0 0-.823.122v-4.806H294.8v8.146h4.682a3.431 3.431 0 0 0 .238 1.027zm3.022-3.871a2.638 2.638 0 1 1 0 .005zm1.732 2.115-1.63 1.831a.446.446 0 0 1-.307.122.342.342 0 0 1-.261-.09l-1.012-.8a.412.412 0 0 1-.065-.585.383.383 0 0 1 .563-.047l.724.563 1.371-1.547a.4.4 0 0 1 .581-.028.448.448 0 0 1 .036.585zm-4.442-3.949h-3.262a.2.2 0 0 1-.2-.209v-.2a.191.191 0 0 1 .2-.186h3.262a.2.2 0 0 1 .206.186v.2a.2.2 0 0 1-.206.209zm0-1.84h-3.262a.193.193 0 0 1-.2-.2v-.189a.2.2 0 0 1 .2-.209h3.262a.2.2 0 0 1 .206.209v.189a.2.2 0 0 1-.206.2zm-1.011 3.472h-2.251a.2.2 0 0 1-.2-.206v-.209a.191.191 0 0 1 .2-.189h2.251a.2.2 0 0 1 .2.189v.209a.205.205 0 0 1-.2.206z" style="fill:#b8bfcc;fill-rule:evenodd" transform="translate(-293.771 -140.801)"/>
    </g>
</svg>
