<svg data-name="그룹 50" xmlns="http://www.w3.org/2000/svg" width="28.056" height="29.685" viewBox="0 0 28.056 29.685">
    <path data-name="패스 6872" d="M229.434 307.6c-3.82 0-7.88-1.224-7.88-3.494s4.059-3.495 7.88-3.495 7.879 1.225 7.879 3.495-4.06 3.494-7.879 3.494zm0-5.755c-4.118 0-6.646 1.317-6.646 2.261s2.528 2.261 6.646 2.261 6.646-1.317 6.646-2.261-2.529-2.258-6.646-2.258z" transform="translate(-221.554 -293.847)" style="fill:#3b82f6"/>
    <path data-name="패스 6873" d="M229.434 314.02c-3.82 0-7.88-1.225-7.88-3.495V305.9a.617.617 0 0 1 1.233 0v4.626c0 .944 2.528 2.261 6.646 2.261a14.547 14.547 0 0 0 4.534-.662.617.617 0 1 1 .4 1.168 15.81 15.81 0 0 1-4.933.727z" transform="translate(-221.554 -295.636)" style="fill:#3b82f6"/>
    <path data-name="패스 6874" d="M229.434 320.1c-3.82 0-7.88-1.225-7.88-3.495v-4.626a.617.617 0 0 1 1.233 0v4.626c0 .945 2.528 2.261 6.646 2.261a14.553 14.553 0 0 0 4.532-.661.617.617 0 1 1 .4 1.167 15.8 15.8 0 0 1-4.931.728z" transform="translate(-221.554 -297.968)" style="fill:#3b82f6"/>
    <path data-name="패스 6876" d="M229.434 326.188c-3.82 0-7.88-1.225-7.88-3.494v-4.626a.617.617 0 1 1 1.233 0v4.626c0 .944 2.528 2.261 6.646 2.261a14.539 14.539 0 0 0 4.533-.662.617.617 0 0 1 .4 1.168 15.806 15.806 0 0 1-4.932.727z" transform="translate(-221.554 -300.3)" style="fill:#3b82f6"/>
    <path data-name="패스 6877" d="M249.375 313.763c-3.82 0-7.88-1.225-7.88-3.495s4.06-3.494 7.88-3.494 7.88 1.224 7.88 3.494-4.061 3.495-7.88 3.495zm0-5.755c-4.118 0-6.646 1.317-6.646 2.261s2.528 2.261 6.646 2.261 6.646-1.317 6.646-2.261-2.528-2.262-6.646-2.262z" transform="translate(-229.198 -296.207)" style="fill:#3b82f6"/>
    <path data-name="패스 6878" d="M249.375 320.177c-3.82 0-7.88-1.225-7.88-3.495v-4.626a.617.617 0 1 1 1.233 0v4.626c0 .944 2.528 2.261 6.646 2.261s6.646-1.317 6.646-2.261v-4.626a.617.617 0 1 1 1.233 0v4.626c.001 2.271-4.059 3.495-7.878 3.495z" transform="translate(-229.198 -297.996)" style="fill:#3b82f6"/>
    <path data-name="패스 6879" d="M249.375 326.263c-3.82 0-7.88-1.225-7.88-3.495v-4.626a.617.617 0 0 1 1.233 0v4.626c0 .944 2.528 2.261 6.646 2.261s6.646-1.317 6.646-2.261v-4.626a.617.617 0 0 1 1.233 0v4.626c.001 2.269-4.059 3.495-7.878 3.495z" transform="translate(-229.198 -300.329)" style="fill:#3b82f6"/>
    <path data-name="패스 6880" d="M249.375 332.346c-3.82 0-7.88-1.225-7.88-3.495v-4.626a.617.617 0 1 1 1.233 0v4.626c0 .944 2.528 2.261 6.646 2.261s6.646-1.317 6.646-2.261v-4.626a.617.617 0 1 1 1.233 0v4.626c.001 2.271-4.059 3.495-7.878 3.495z" transform="translate(-229.198 -302.661)" style="fill:#3b82f6"/>
    <path data-name="패스 6881" d="M246.617 296.628c-3.82 0-7.88-1.225-7.88-3.495s4.06-3.495 7.88-3.495 7.88 1.225 7.88 3.495-4.061 3.495-7.88 3.495zm0-5.756c-4.118 0-6.646 1.317-6.646 2.261s2.528 2.261 6.646 2.261 6.646-1.317 6.646-2.261-2.528-2.261-6.646-2.261z" transform="translate(-228.141 -289.639)" style="fill:#3b82f6"/>
    <path data-name="패스 6882" d="M249.011 303.043a17.431 17.431 0 0 1-3.539-.35.617.617 0 1 1 .255-1.207 16.123 16.123 0 0 0 3.284.324c4.118 0 6.646-1.317 6.646-2.261v-4.626a.617.617 0 1 1 1.233 0v4.626c0 2.27-4.06 3.494-7.879 3.494z" transform="translate(-230.535 -291.428)" style="fill:#3b82f6"/>
    <path data-name="패스 6883" d="M239.354 299.43a.616.616 0 0 1-.617-.617v-3.891a.617.617 0 1 1 1.233 0v3.891a.616.616 0 0 1-.616.617z" transform="translate(-228.141 -291.428)" style="fill:#3b82f6"/>
    <path data-name="패스 6884" d="M262.91 306.25a.617.617 0 0 1-.617-.617v-4.627a.617.617 0 1 1 1.233 0v4.627a.617.617 0 0 1-.616.617z" transform="translate(-237.171 -293.76)" style="fill:#3b82f6"/>
</svg>
