<svg xmlns="http://www.w3.org/2000/svg" width="29.749" height="33.624" viewBox="0 0 29.749 33.624">
    <g data-name="그룹 395">
        <g data-name="그룹 49">
            <path data-name="패스 6829" d="M254.511 118.676h-13.02a.685.685 0 0 1 0-1.37h13.02a.685.685 0 1 1 0 1.37z" transform="translate(-230.834 -107.923)" style="fill:#3b82f6"/>
            <path data-name="패스 6830" d="M254.511 126.612h-13.02a.685.685 0 0 1 0-1.37h13.02a.685.685 0 0 1 0 1.37z" transform="translate(-230.834 -110.422)" style="fill:#3b82f6"/>
            <path data-name="패스 6831" d="M254.511 134.549h-13.02a.685.685 0 0 1 0-1.37h13.02a.685.685 0 0 1 0 1.37z" transform="translate(-230.834 -112.921)" style="fill:#3b82f6"/>
            <path data-name="패스 6832" d="M254.511 142.485h-13.02a.685.685 0 1 1 0-1.37h13.02a.685.685 0 1 1 0 1.37z" transform="translate(-230.834 -115.42)" style="fill:#3b82f6"/>
            <path data-name="패스 6833" d="M235.894 118.676h-1.12a.685.685 0 1 1 0-1.37h1.12a.685.685 0 0 1 0 1.37z" transform="translate(-228.719 -107.923)" style="fill:#3b82f6"/>
            <path data-name="패스 6834" d="M235.894 126.612h-1.12a.685.685 0 1 1 0-1.37h1.12a.685.685 0 0 1 0 1.37z" transform="translate(-228.719 -110.422)" style="fill:#3b82f6"/>
            <path data-name="패스 6835" d="M235.894 134.549h-1.12a.685.685 0 1 1 0-1.37h1.12a.685.685 0 0 1 0 1.37z" transform="translate(-228.719 -112.921)" style="fill:#3b82f6"/>
            <path data-name="패스 6836" d="M235.894 142.485h-1.12a.685.685 0 1 1 0-1.37h1.12a.685.685 0 0 1 0 1.37z" transform="translate(-228.719 -115.42)" style="fill:#3b82f6"/>
        </g>
        <g data-name="그룹 48">
            <g data-name="그룹 68">
                <path data-name="패스 6828" d="M253.373 137.234h-24.494a2.631 2.631 0 0 1-2.627-2.627v-24.816a.683.683 0 0 1 .22-.488l.014-.013 6.239-5.508a.683.683 0 0 1 .454-.172h20.194a2.63 2.63 0 0 1 2.627 2.627v28.369a2.631 2.631 0 0 1-2.627 2.628zm-25.751-26.743v24.116a1.258 1.258 0 0 0 1.257 1.257h24.494a1.258 1.258 0 0 0 1.257-1.257v-28.37a1.258 1.258 0 0 0-1.257-1.257h-19.345v2.884a2.63 2.63 0 0 1-2.627 2.627zm1.126-1.37h2.652a1.258 1.258 0 0 0 1.257-1.257v-2.2z" transform="translate(-226.252 -103.61)" style="fill:#3b82f6"/>
            </g>
        </g>
    </g>
</svg>
