<svg width="24" height="24" viewBox="0 0 24 24" fill="none" xmlns="http://www.w3.org/2000/svg">
<mask id="mask0_973_404" style="mask-type:alpha" maskUnits="userSpaceOnUse" x="0" y="0" width="24" height="24">
<rect width="24" height="24" fill="#D9D9D9"/>
</mask>
<g mask="url(#mask0_973_404)">
<path d="M10.9851 21.45C9.78257 21.3231 8.6659 20.9865 7.63513 20.4404C6.60436 19.8942 5.71142 19.1977 4.95631 18.3509C4.20117 17.5042 3.60886 16.5346 3.17938 15.4423C2.7499 14.35 2.53516 13.1975 2.53516 11.9846C2.53516 9.53592 3.34124 7.4122 4.95341 5.61349C6.56559 3.81479 8.5845 2.78339 11.0101 2.51929V4.01924C8.99987 4.30257 7.3348 5.1968 6.01493 6.70194C4.69506 8.20707 4.03513 9.96797 4.03513 11.9846C4.03513 14.0013 4.69346 15.7622 6.01013 17.2673C7.3268 18.7724 8.98513 19.6667 10.9851 19.95V21.45ZM11.9851 16.6538L7.31591 11.9692L8.38513 10.9L11.2351 13.7501V7.34619H12.7351V13.7501L15.5697 10.9154L16.6389 12L11.9851 16.6538ZM12.9851 21.45V19.95C13.7018 19.85 14.3893 19.6632 15.0476 19.3894C15.706 19.1157 16.3185 18.759 16.8851 18.3192L17.9889 19.4038C17.2505 19.9692 16.4601 20.4234 15.6178 20.7663C14.7755 21.1093 13.8979 21.3372 12.9851 21.45ZM16.9351 5.66924C16.3518 5.2359 15.731 4.87757 15.0726 4.59424C14.4143 4.3109 13.7268 4.11924 13.0101 4.01924V2.51929C13.9229 2.62569 14.7989 2.85196 15.638 3.19811C16.4771 3.54428 17.2607 4.00005 17.9889 4.56541L16.9351 5.66924ZM19.3889 17.9538L18.3351 16.8846C18.7685 16.318 19.1185 15.7055 19.3851 15.0471C19.6518 14.3888 19.8351 13.7013 19.9351 12.9846H21.4659C21.3453 13.8975 21.113 14.7776 20.7687 15.625C20.4245 16.4724 19.9646 17.2487 19.3889 17.9538ZM19.9351 10.9846C19.8351 10.268 19.6518 9.58047 19.3851 8.92214C19.1185 8.2638 18.7685 7.6513 18.3351 7.08464L19.4082 5.99619C19.971 6.71414 20.4264 7.49683 20.7745 8.34426C21.1226 9.1917 21.353 10.0718 21.4659 10.9846H19.9351Z" fill="#ffffff"/>
</g>
</svg>
