<svg width="22" height="22" viewBox="0 0 22 22" fill="none" xmlns="http://www.w3.org/2000/svg">
<path d="M3.339 4.541L0.212 1.415L1.627 0L21.426 19.8L20.011 21.214L16.701 17.904C14.9422 19.0196 12.9017 19.6103 10.819 19.607C5.427 19.607 0.941 15.727 0 10.607C0.43003 8.27772 1.60163 6.1499 3.34 4.541H3.339ZM13.576 14.779L12.112 13.315C11.552 13.5829 10.9228 13.6705 10.3109 13.5658C9.69909 13.461 9.1348 13.1691 8.69587 12.7301C8.25694 12.2912 7.96497 11.7269 7.86022 11.1151C7.75546 10.5032 7.84308 9.87395 8.111 9.314L6.647 7.85C6.01072 8.81149 5.72627 9.96333 5.84183 11.1105C5.95739 12.2576 6.46585 13.3296 7.28112 14.1449C8.09639 14.9601 9.16835 15.4686 10.3155 15.5842C11.4627 15.6997 12.6145 15.4153 13.576 14.779ZM6.793 2.367C8.04 1.877 9.399 1.607 10.819 1.607C16.211 1.607 20.697 5.487 21.638 10.607C21.3316 12.2727 20.6429 13.8446 19.626 15.199L15.766 11.339C15.8807 10.5666 15.8128 9.77811 15.5679 9.03666C15.323 8.2952 14.9079 7.62141 14.3557 7.06927C13.8036 6.51712 13.1298 6.10197 12.3883 5.85707C11.6469 5.61218 10.8584 5.54434 10.086 5.659L6.793 2.368V2.367Z" fill="black" fill-opacity="0.4"/>
</svg>
