<svg width="34" height="34" viewBox="0 0 34 34" fill="none" xmlns="http://www.w3.org/2000/svg">
<path d="M15.3925 18.4884V20.2558C13.922 20.2558 12.5118 20.8144 11.472 21.8088C10.4323 22.8032 9.84813 24.1519 9.84813 25.5581H8C8 23.6831 8.77885 21.8849 10.1652 20.5591C11.5516 19.2332 13.4319 18.4884 15.3925 18.4884ZM15.3925 17.6047C12.3292 17.6047 9.84813 15.2319 9.84813 12.3023C9.84813 9.37279 12.3292 7 15.3925 7C18.4558 7 20.9369 9.37279 20.9369 12.3023C20.9369 15.2319 18.4558 17.6047 15.3925 17.6047ZM15.3925 15.8372C17.4347 15.8372 19.0888 14.2553 19.0888 12.3023C19.0888 10.3493 17.4347 8.76744 15.3925 8.76744C13.3503 8.76744 11.6963 10.3493 11.6963 12.3023C11.6963 14.2553 13.3503 15.8372 15.3925 15.8372ZM17.7905 22.7408C17.6733 22.2693 17.6733 21.7781 17.7905 21.3066L16.8738 20.8002L17.7978 19.2696L18.7145 19.776C19.0824 19.4427 19.5272 19.1969 20.0128 19.0584V18.0465H21.861V19.0584C22.3526 19.198 22.7961 19.4472 23.1593 19.776L24.0759 19.2696L25 20.8002L24.0833 21.3066C24.2003 21.7778 24.2003 22.2687 24.0833 22.74L25 23.2463L24.0759 24.7769L23.1593 24.2706C22.7913 24.6038 22.3466 24.8496 21.861 24.9881V26H20.0128V24.9881C19.5272 24.8496 19.0824 24.6038 18.7145 24.2706L17.7978 24.7769L16.8738 23.2463L17.7905 22.7408ZM20.9369 23.3488C21.3045 23.3488 21.6571 23.2092 21.917 22.9606C22.177 22.712 22.323 22.3748 22.323 22.0233C22.323 21.6717 22.177 21.3345 21.917 21.0859C21.6571 20.8373 21.3045 20.6977 20.9369 20.6977C20.5693 20.6977 20.2167 20.8373 19.9568 21.0859C19.6968 21.3345 19.5508 21.6717 19.5508 22.0233C19.5508 22.3748 19.6968 22.712 19.9568 22.9606C20.2167 23.2092 20.5693 23.3488 20.9369 23.3488Z" fill="black"/>
<rect width="34" height="34" rx="3" fill="white" fill-opacity="0.7"/>
<rect x="0.5" y="0.5" width="33" height="33" rx="2.5" stroke="black" stroke-opacity="0.1"/>
</svg>
