<svg width="24" height="24" viewBox="0 0 24 24" fill="none" xmlns="http://www.w3.org/2000/svg">
<mask id="mask0_973_366" style="mask-type:alpha" maskUnits="userSpaceOnUse" x="0" y="0" width="24" height="24">
<rect width="24" height="24" fill="#D9D9D9"/>
</mask>
<g mask="url(#mask0_973_366)">
<path d="M12 22.3846L5.22307 17.3019C4.99872 17.1378 4.82212 16.9269 4.69327 16.6692C4.56442 16.4115 4.5 16.1403 4.5 15.8557V4.3077C4.5 3.80257 4.675 3.375 5.025 3.025C5.375 2.675 5.80257 2.5 6.3077 2.5H17.6922C18.1974 2.5 18.625 2.675 18.975 3.025C19.325 3.375 19.5 3.80257 19.5 4.3077V15.8557C19.5 16.1403 19.4355 16.4115 19.3067 16.6692C19.1778 16.9269 19.0012 17.1378 18.7769 17.3019L12 22.3846ZM12 20.5L17.875 16.0961C17.9134 16.0641 17.9439 16.0272 17.9663 15.9855C17.9888 15.9439 18 15.8974 18 15.8461V4.3077C18 4.23077 17.9679 4.16024 17.9038 4.09613C17.8397 4.03203 17.7692 3.99998 17.6922 3.99998H6.3077C6.23077 3.99998 6.16024 4.03203 6.09612 4.09613C6.03202 4.16024 5.99997 4.23077 5.99997 4.3077V15.8461C5.99997 15.8974 6.01119 15.9439 6.03362 15.9855C6.05607 16.0272 6.08652 16.0641 6.12497 16.0961L12 20.5ZM10.95 14.6538L16.2538 9.34998L15.2 8.26538L10.95 12.5154L8.83075 10.3962L7.74615 11.45L10.95 14.6538Z" fill="#636D7E"/>
</g>
</svg>
