<svg width="20" height="20" viewBox="0 0 20 20" fill="none" xmlns="http://www.w3.org/2000/svg">
<path d="M3.5 19.8721C1.567 19.8721 0 18.3051 0 16.3721C0 14.4391 1.567 12.8721 3.5 12.8721C5.085 12.8721 6.424 13.9261 6.855 15.3721H12.5V13.3721H14.5V7.61405L12.257 5.37205H6.5V7.37205H0.5V1.37205H6.5V3.37205H12.257L15.5 0.128052L19.743 4.37205L16.5 7.61305V13.3721H18.5V19.3721H12.5V17.3721H6.855C6.425 18.8181 5.085 19.8721 3.5 19.8721ZM3.5 14.8721C2.672 14.8721 2 15.5441 2 16.3721C2 17.2001 2.672 17.8721 3.5 17.8721C4.328 17.8721 5 17.2001 5 16.3721C5 15.5441 4.328 14.8721 3.5 14.8721ZM16.5 15.3721H14.5V17.3721H16.5V15.3721ZM15.5 2.95805L14.086 4.37205L15.5 5.78605L16.914 4.37205L15.5 2.95805ZM4.5 3.37205H2.5V5.37205H4.5V3.37205Z" fill="#03053D"/>
</svg>
