<svg width="21" height="23" viewBox="0 0 21 23" fill="none" xmlns="http://www.w3.org/2000/svg">
<path d="M20.499 18.75H0.499023V16.75H1.49902V9.781C1.49902 4.793 5.52902 0.75 10.499 0.75C15.469 0.75 19.499 4.793 19.499 9.781V16.75H20.499V18.75ZM3.49902 16.75H17.499V9.781C17.499 5.898 14.365 2.75 10.499 2.75C6.63302 2.75 3.49902 5.898 3.49902 9.781V16.75ZM7.99902 19.75H12.999C12.999 20.413 12.7356 21.0489 12.2668 21.5178C11.7979 21.9866 11.1621 22.25 10.499 22.25C9.83598 22.25 9.2001 21.9866 8.73126 21.5178C8.26242 21.0489 7.99902 20.413 7.99902 19.75Z" fill="#03053D"/>
</svg>
