<svg width="19" height="18" viewBox="0 0 19 18" fill="none" xmlns="http://www.w3.org/2000/svg">
<path d="M8.38817 8.34119L16.2372 0.492188L17.6512 1.90619L16.2372 3.32119L18.7112 5.79519L17.2972 7.21019L14.8222 4.73519L13.4082 6.14919L15.5292 8.27019L14.1152 9.68519L11.9942 7.56319L9.80217 9.75519C10.4826 10.7892 10.7555 12.0388 10.5681 13.2623C10.3807 14.4858 9.74621 15.5964 8.78743 16.3793C7.82866 17.1622 6.61365 17.5618 5.37734 17.5008C4.14103 17.4398 2.97125 16.9226 2.09417 16.0492C1.21519 15.1735 0.693193 14.0023 0.62962 12.7632C0.566046 11.5241 0.96544 10.3056 1.75018 9.34461C2.53492 8.38357 3.64894 7.74863 4.87573 7.56318C6.10252 7.37774 7.35443 7.65504 8.38817 8.34119ZM7.75117 14.6342C8.04248 14.3586 8.2756 14.0275 8.43675 13.6603C8.59789 13.2931 8.68379 12.8974 8.68937 12.4964C8.69494 12.0955 8.62008 11.6975 8.46921 11.3259C8.31834 10.9544 8.09452 10.6169 7.81098 10.3334C7.52743 10.0498 7.18993 9.82602 6.81841 9.67514C6.44688 9.52427 6.04889 9.44941 5.64794 9.45499C5.24699 9.46056 4.85123 9.54646 4.48405 9.70761C4.11686 9.86875 3.78571 10.1019 3.51017 10.3932C2.96369 10.959 2.66131 11.7168 2.66814 12.5034C2.67498 13.29 2.99049 14.0424 3.54671 14.5986C4.10293 15.1549 4.85537 15.4704 5.64196 15.4772C6.42855 15.484 7.18636 15.1817 7.75217 14.6352L7.75117 14.6342Z" fill="#03053D"/>
</svg>
