<svg width="21" height="21" viewBox="0 0 21 21" fill="none" xmlns="http://www.w3.org/2000/svg">
<path d="M9.69238 9.14209V5.14209H11.6924V9.14209H15.6924V11.1421H11.6924V15.1421H9.69238V11.1421H5.69238V9.14209H9.69238ZM10.6924 20.1421C5.16938 20.1421 0.692383 15.6651 0.692383 10.1421C0.692383 4.61909 5.16938 0.14209 10.6924 0.14209C16.2154 0.14209 20.6924 4.61909 20.6924 10.1421C20.6924 15.6651 16.2154 20.1421 10.6924 20.1421ZM10.6924 18.1421C12.8141 18.1421 14.8489 17.2992 16.3492 15.7989C17.8495 14.2987 18.6924 12.2638 18.6924 10.1421C18.6924 8.02036 17.8495 5.98553 16.3492 4.48524C14.8489 2.98494 12.8141 2.14209 10.6924 2.14209C8.57065 2.14209 6.53582 2.98494 5.03553 4.48524C3.53524 5.98553 2.69238 8.02036 2.69238 10.1421C2.69238 12.2638 3.53524 14.2987 5.03553 15.7989C6.53582 17.2992 8.57065 18.1421 10.6924 18.1421Z" fill="white"/>
</svg>
