<svg width="20" height="21" viewBox="0 0 20 21" fill="none" xmlns="http://www.w3.org/2000/svg">
<mask id="mask0_1012_425" style="mask-type:alpha" maskUnits="userSpaceOnUse" x="0" y="0" width="20" height="21">
<rect y="0.5" width="20" height="20" fill="#D9D9D9"/>
</mask>
<g mask="url(#mask0_1012_425)">
<path d="M4.75577 17.0833C4.38065 17.0833 4.06358 16.9538 3.80456 16.6948C3.54553 16.4357 3.41602 16.1187 3.41602 15.7436V5.25644C3.41602 4.88133 3.54553 4.56426 3.80456 4.30523C4.06358 4.0462 4.38065 3.91669 4.75577 3.91669H10.0073V5H4.75577C4.69165 5 4.63288 5.02671 4.57945 5.08013C4.52604 5.13356 4.49933 5.19233 4.49933 5.25644V15.7436C4.49933 15.8077 4.52604 15.8664 4.57945 15.9199C4.63288 15.9733 4.69165 16 4.75577 16H10.0073V17.0833H4.75577ZM13.6916 13.391L12.9096 12.633L14.501 11.0416H8.07945V9.95835H14.501L12.9096 8.367L13.6916 7.60902L16.5826 10.5L13.6916 13.391Z" fill="#6D6D6D"/>
</g>
</svg>
