<svg width="24" height="24" viewBox="0 0 24 24" fill="none" xmlns="http://www.w3.org/2000/svg">
<mask id="mask0_973_399" style="mask-type:alpha" maskUnits="userSpaceOnUse" x="0" y="0" width="24" height="24">
<rect width="24" height="24" fill="#D9D9D9"/>
</mask>
<g mask="url(#mask0_973_399)">
<path d="M6.00012 20.6153C5.0059 20.6153 4.15478 20.2613 3.44677 19.5533C2.73877 18.8453 2.38477 17.9942 2.38477 17C2.38477 16.0058 2.73877 15.1547 3.44677 14.4466C4.15478 13.7386 5.0059 13.3846 6.00012 13.3846C6.99433 13.3846 7.84545 13.7386 8.55347 14.4466C9.26147 15.1547 9.61547 16.0058 9.61547 17C9.61547 17.9942 9.26147 18.8453 8.55347 19.5533C7.84545 20.2613 6.99433 20.6153 6.00012 20.6153ZM18.0001 20.6153C17.0059 20.6153 16.1548 20.2613 15.4468 19.5533C14.7388 18.8453 14.3848 17.9942 14.3848 17C14.3848 16.0058 14.7388 15.1547 15.4468 14.4466C16.1548 13.7386 17.0059 13.3846 18.0001 13.3846C18.9943 13.3846 19.8454 13.7386 20.5535 14.4466C21.2615 15.1547 21.6155 16.0058 21.6155 17C21.6155 17.9942 21.2615 18.8453 20.5535 19.5533C19.8454 20.2613 18.9943 20.6153 18.0001 20.6153ZM6.00047 19.1154C6.58228 19.1154 7.08024 18.9082 7.49434 18.4939C7.90846 18.0796 8.11552 17.5815 8.11552 16.9996C8.11552 16.4178 7.90835 15.9199 7.49402 15.5058C7.07968 15.0917 6.5816 14.8846 5.99977 14.8846C5.41795 14.8846 4.91999 15.0918 4.50589 15.5061C4.09177 15.9204 3.88472 16.4185 3.88472 17.0003C3.88472 17.5822 4.09188 18.0801 4.50622 18.4942C4.92055 18.9083 5.41863 19.1154 6.00047 19.1154ZM18.0005 19.1154C18.5823 19.1154 19.0802 18.9082 19.4943 18.4939C19.9085 18.0796 20.1155 17.5815 20.1155 16.9996C20.1155 16.4178 19.9083 15.9199 19.494 15.5058C19.0797 15.0917 18.5816 14.8846 17.9998 14.8846C17.4179 14.8846 16.92 15.0918 16.5059 15.5061C16.0918 15.9204 15.8847 16.4185 15.8847 17.0003C15.8847 17.5822 16.0919 18.0801 16.5062 18.4942C16.9206 18.9083 17.4186 19.1154 18.0005 19.1154ZM12.0001 14.7077C11.5245 14.7077 11.121 14.542 10.7895 14.2106C10.4581 13.8792 10.2924 13.4756 10.2924 13C10.2924 12.5244 10.4581 12.1208 10.7895 11.7894C11.121 11.458 11.5245 11.2923 12.0001 11.2923C12.4757 11.2923 12.8793 11.458 13.2107 11.7894C13.5421 12.1208 13.7078 12.5244 13.7078 13C13.7078 13.4756 13.5421 13.8792 13.2107 14.2106C12.8793 14.542 12.4757 14.7077 12.0001 14.7077ZM12.0001 9.61534C11.0059 9.61534 10.1548 9.26134 9.44677 8.55334C8.73877 7.84533 8.38477 6.99421 8.38477 5.99999C8.38477 5.00578 8.73877 4.15466 9.44677 3.44664C10.1548 2.73864 11.0059 2.38464 12.0001 2.38464C12.9943 2.38464 13.8454 2.73864 14.5535 3.44664C15.2615 4.15466 15.6155 5.00578 15.6155 5.99999C15.6155 6.99421 15.2615 7.84533 14.5535 8.55334C13.8454 9.26134 12.9943 9.61534 12.0001 9.61534ZM12.0005 8.11539C12.5823 8.11539 13.0802 7.90823 13.4943 7.49389C13.9085 7.07956 14.1155 6.58148 14.1155 5.99964C14.1155 5.41783 13.9083 4.91987 13.494 4.50577C13.0797 4.09165 12.5816 3.88459 11.9998 3.88459C11.4179 3.88459 10.92 4.09176 10.5059 4.50609C10.0918 4.92043 9.88472 5.41851 9.88472 6.00034C9.88472 6.58216 10.0919 7.08012 10.5062 7.49422C10.9205 7.90834 11.4186 8.11539 12.0005 8.11539Z" fill="#ffffff"/>
</g>
</svg>
