<svg width="21" height="21" viewBox="0 0 21 21" fill="none" xmlns="http://www.w3.org/2000/svg">
<path d="M15.3848 4.14209H20.3848V6.14209H18.3848V19.1421C18.3848 19.4073 18.2794 19.6617 18.0919 19.8492C17.9043 20.0367 17.65 20.1421 17.3848 20.1421H3.38477C3.11955 20.1421 2.8652 20.0367 2.67766 19.8492C2.49012 19.6617 2.38477 19.4073 2.38477 19.1421V6.14209H0.384766V4.14209H5.38477V1.14209C5.38477 0.876873 5.49012 0.622519 5.67766 0.434983C5.8652 0.247447 6.11955 0.14209 6.38477 0.14209H14.3848C14.65 0.14209 14.9043 0.247447 15.0919 0.434983C15.2794 0.622519 15.3848 0.876873 15.3848 1.14209V4.14209ZM16.3848 6.14209H4.38477V18.1421H16.3848V6.14209ZM7.38477 9.14209H9.38477V15.1421H7.38477V9.14209ZM11.3848 9.14209H13.3848V15.1421H11.3848V9.14209ZM7.38477 2.14209V4.14209H13.3848V2.14209H7.38477Z" fill="black" fill-opacity="0.3"/>
</svg>
