<svg width="23" height="22" viewBox="0 0 23 22" fill="none" xmlns="http://www.w3.org/2000/svg">
<g filter="url(#filter0_d_425_11943)">
<rect x="1.5" y="1" width="20" height="20" rx="10" fill="white"/>
</g>
<path d="M1.5 11C1.5 5.47715 5.97715 1 11.5 1C17.0228 1 21.5 5.47715 21.5 11C21.5 16.5228 17.0228 21 11.5 21C5.97715 21 1.5 16.5228 1.5 11Z" fill="white"/>
<path d="M11.5 0.5C5.70101 0.5 1 5.20101 1 11C1 16.799 5.70101 21.5 11.5 21.5C17.299 21.5 22 16.799 22 11C22 5.20101 17.299 0.5 11.5 0.5Z" stroke="black" stroke-opacity="0.0578"/>
<path d="M5.5 11C5.5 7.68629 8.18629 5 11.5 5C14.8137 5 17.5 7.68629 17.5 11C17.5 14.3137 14.8137 17 11.5 17C8.18629 17 5.5 14.3137 5.5 11Z" fill="#2073C1"/>
<defs>
<filter id="filter0_d_425_11943" x="1.5" y="1" width="20" height="21" filterUnits="userSpaceOnUse" color-interpolation-filters="sRGB">
<feFlood flood-opacity="0" result="BackgroundImageFix"/>
<feColorMatrix in="SourceAlpha" type="matrix" values="0 0 0 0 0 0 0 0 0 0 0 0 0 0 0 0 0 0 127 0" result="hardAlpha"/>
<feOffset dy="1"/>
<feColorMatrix type="matrix" values="0 0 0 0 0 0 0 0 0 0 0 0 0 0 0 0 0 0 0.1044 0"/>
<feBlend mode="normal" in2="BackgroundImageFix" result="effect1_dropShadow_425_11943"/>
<feBlend mode="normal" in="SourceGraphic" in2="effect1_dropShadow_425_11943" result="shape"/>
</filter>
</defs>
</svg>
