<svg width="24" height="24" viewBox="0 0 24 24" fill="none" xmlns="http://www.w3.org/2000/svg">
<mask id="mask0_973_342" style="mask-type:alpha" maskUnits="userSpaceOnUse" x="0" y="0" width="24" height="24">
<rect width="24" height="24" fill="#D9D9D9"/>
</mask>
<g mask="url(#mask0_973_342)">
<path d="M11.5557 17.4807C10.1288 17.3589 8.92948 16.7775 7.9577 15.7365C6.9859 14.6955 6.5 13.45 6.5 12C6.5 10.4722 7.03473 9.17361 8.10418 8.10418C9.17361 7.03473 10.4722 6.5 12 6.5C13.45 6.5 14.6955 6.98429 15.7365 7.95288C16.7775 8.92146 17.3589 10.1192 17.4807 11.5461L15.8904 11.075C15.6742 10.175 15.2087 9.43748 14.4938 8.86248C13.7789 8.28748 12.9476 7.99998 12 7.99998C10.9 7.99998 9.95831 8.39164 9.17497 9.17498C8.39164 9.95831 7.99997 10.9 7.99997 12C7.99997 12.95 8.28907 13.7833 8.86727 14.5C9.44549 15.2166 10.1814 15.6833 11.075 15.9L11.5557 17.4807ZM12.7557 21.4596C12.6298 21.4865 12.5038 21.5 12.3778 21.5H12C10.6858 21.5 9.45082 21.2506 8.295 20.752C7.13917 20.2533 6.13375 19.5765 5.27875 18.7217C4.42375 17.8669 3.74687 16.8616 3.24812 15.706C2.74937 14.5504 2.5 13.3156 2.5 12.0017C2.5 10.6877 2.74933 9.45268 3.248 8.29655C3.74667 7.1404 4.42342 6.13472 5.27825 5.2795C6.1331 4.42427 7.13834 3.74721 8.29398 3.24833C9.44959 2.74944 10.6844 2.5 11.9983 2.5C13.3122 2.5 14.5473 2.74938 15.7034 3.24813C16.8596 3.74688 17.8652 4.42375 18.7204 5.27875C19.5757 6.13375 20.2527 7.13917 20.7516 8.295C21.2505 9.45082 21.5 10.6858 21.5 12V12.3731C21.5 12.4974 21.4865 12.6218 21.4596 12.7461L20 12.3V12C20 9.76664 19.225 7.87498 17.675 6.32498C16.125 4.77498 14.2333 3.99998 12 3.99998C9.76664 3.99998 7.87497 4.77498 6.32497 6.32498C4.77497 7.87498 3.99998 9.76664 3.99998 12C3.99998 14.2333 4.77497 16.125 6.32497 17.675C7.87497 19.225 9.76664 20 12 20H12.3L12.7557 21.4596ZM20.1403 21.6441L15.6057 17.0999L14.5192 20.3845L12 12L20.3845 14.5192L17.0999 15.6057L21.6442 20.1403L20.1403 21.6441Z" fill="#ffffff"/>
</g>
</svg>
