<svg xmlns="http://www.w3.org/2000/svg" width="24" height="24" viewBox="0 0 24 24">
    <path data-name="패스 6367" d="M10 6.274a4.094 4.094 0 0 1 4.1 4.093 3.973 3.973 0 0 1-.295 1.5l2.39 2.39A9.673 9.673 0 0 0 19 10.367a9.681 9.681 0 0 0-9-6.139 9.532 9.532 0 0 0-3.262.572l1.768 1.769A3.973 3.973 0 0 1 10 6.274zM1.819 4.04l1.866 1.866.377.377A9.662 9.662 0 0 0 1 10.367a9.677 9.677 0 0 0 12.589 5.452l.344.344 2.4 2.39 1.04-1.04L2.858 3zm4.526 4.526 1.269 1.269a2.309 2.309 0 0 0-.065.532A2.452 2.452 0 0 0 10 12.823a2.309 2.309 0 0 0 .532-.065l1.268 1.268a4.066 4.066 0 0 1-5.46-5.46zm3.528-.638 2.578 2.578.016-.131a2.452 2.452 0 0 0-2.455-2.455z" transform="translate(2 1)" style="fill:#989898"/>
    <path data-name="사각형 1517" style="fill:none" d="M0 0h24v24H0z"/>
</svg>
