<svg width="8" height="6" viewBox="0 0 8 6" fill="none" xmlns="http://www.w3.org/2000/svg">
<path d="M0.992188 0C0.854167 0 0.72526 0.0260417 0.605469 0.078125C0.485677 0.132812 0.380208 0.204427 0.289063 0.292969C0.200521 0.384115 0.130208 0.489583 0.078125 0.609375C0.0260417 0.731771 0 0.861979 0 1C0 1.10938 0.0143229 1.20964 0.0429688 1.30078C0.0742188 1.39193 0.119792 1.48177 0.179688 1.57031L2.78125 5.35547C2.84896 5.45443 2.92839 5.54167 3.01953 5.61719C3.11068 5.69271 3.20833 5.75521 3.3125 5.80469C3.41927 5.85677 3.53125 5.89583 3.64844 5.92188C3.76563 5.94792 3.88281 5.96094 4 5.96094C4.11719 5.96094 4.23438 5.94792 4.35156 5.92188C4.46875 5.89583 4.57943 5.85677 4.68359 5.80469C4.79036 5.75521 4.88932 5.69271 4.98047 5.61719C5.07161 5.54167 5.15104 5.45443 5.21875 5.35547L7.82031 1.57031C7.88021 1.48177 7.92448 1.39193 7.95313 1.30078C7.98438 1.20964 8 1.10938 8 1C8 0.861979 7.97396 0.731771 7.92188 0.609375C7.86979 0.489583 7.79948 0.384115 7.71094 0.292969C7.6224 0.204427 7.51693 0.132813 7.39453 0.078125C7.27474 0.0260417 7.14714 0 7.01172 0L0.992188 0Z" fill="black" fill-opacity="0.4458"/>
</svg>
