<svg width="18" height="20" viewBox="0 0 18 20" fill="none" xmlns="http://www.w3.org/2000/svg">
<path d="M8.606 15.1021C12.268 15.1021 15.471 16.677 17.213 19.0271L15.371 19.8981C13.953 18.2181 11.453 17.1021 8.606 17.1021C5.759 17.1021 3.259 18.2181 1.841 19.8981L0 19.0261C1.742 16.6761 4.944 15.1021 8.606 15.1021ZM8.606 0.102051C9.93208 0.102051 11.2039 0.628835 12.1415 1.56652C13.0792 2.5042 13.606 3.77597 13.606 5.10205V8.10205C13.6059 9.39051 13.1085 10.6292 12.2173 11.5598C11.3262 12.4904 10.1102 13.0411 8.823 13.0971L8.606 13.1021C7.27992 13.1021 6.00815 12.5753 5.07047 11.6376C4.13278 10.6999 3.606 9.42813 3.606 8.10205V5.10205C3.60607 3.81359 4.10354 2.57489 4.99466 1.64427C5.88578 0.713658 7.10175 0.16297 8.389 0.107051L8.606 0.102051ZM8.606 2.10205C7.84079 2.10201 7.10449 2.39438 6.54774 2.91933C5.99099 3.44429 5.65589 4.16216 5.611 4.92605L5.606 5.10205V8.10205C5.60525 8.88296 5.90902 9.63338 6.45277 10.1939C6.99652 10.7544 7.73739 11.0807 8.51796 11.1037C9.29853 11.1266 10.0573 10.8442 10.633 10.3166C11.2087 9.78897 11.5559 9.05765 11.601 8.27805L11.606 8.10205V5.10205C11.606 4.3064 11.2899 3.54334 10.7273 2.98073C10.1647 2.41812 9.40165 2.10205 8.606 2.10205Z" fill="#03053D"/>
</svg>
