<svg width="24" height="24" viewBox="0 0 24 24" fill="none" xmlns="http://www.w3.org/2000/svg">
<mask id="mask0_973_379" style="mask-type:alpha" maskUnits="userSpaceOnUse" x="0" y="0" width="24" height="24">
<rect width="24" height="24" fill="#D9D9D9"/>
</mask>
<g mask="url(#mask0_973_379)">
<path d="M15.5655 15.0496L16.4347 14.2112L14.1616 11.9381C14.345 11.6548 14.4793 11.3708 14.5645 11.0862C14.6498 10.8016 14.6924 10.4843 14.6924 10.1343C14.6924 9.24069 14.3786 8.48524 13.7511 7.86794C13.1235 7.25064 12.3732 6.94199 11.5001 6.94199C10.627 6.94199 9.87673 7.25064 9.24917 7.86794C8.62162 8.48524 8.30784 9.24069 8.30784 10.1343C8.30784 11.0279 8.62162 11.7833 9.24917 12.4006C9.87673 13.0179 10.627 13.3265 11.5001 13.3265C11.8501 13.3265 12.1665 13.2807 12.4491 13.189C12.7318 13.0974 13.0232 12.9599 13.3232 12.7765L15.5655 15.0496ZM11.5001 12.1343C10.9501 12.1343 10.4793 11.9384 10.0876 11.5468C9.69595 11.1551 9.50012 10.6843 9.50012 10.1343C9.50012 9.58427 9.69595 9.11344 10.0876 8.72177C10.4793 8.3301 10.9501 8.13427 11.5001 8.13427C12.0399 8.13427 12.5081 8.3301 12.9049 8.72177C13.3017 9.11344 13.5001 9.58427 13.5001 10.1343C13.5001 10.6843 13.3043 11.1551 12.9126 11.5468C12.5209 11.9384 12.0501 12.1343 11.5001 12.1343ZM2.13474 20.2304C1.92192 20.2304 1.74372 20.1586 1.60014 20.015C1.45656 19.8714 1.38477 19.6932 1.38477 19.4804C1.38477 19.2676 1.45655 19.0894 1.60012 18.9458C1.7437 18.8022 1.9219 18.7304 2.13472 18.7304H21.8655C22.0783 18.7304 22.2565 18.8022 22.4001 18.9458C22.5436 19.0894 22.6154 19.2676 22.6154 19.4804C22.6154 19.6932 22.5436 19.8714 22.4001 20.015C22.2565 20.1586 22.0783 20.2304 21.8655 20.2304H2.13474ZM4.30784 17.7304C3.80271 17.7304 3.37514 17.5554 3.02514 17.2054C2.67514 16.8554 2.50014 16.4278 2.50014 15.9227V5.53814C2.50014 5.03303 2.67514 4.60547 3.02514 4.25547C3.37514 3.90547 3.80271 3.73047 4.30784 3.73047H19.6924C20.1975 3.73047 20.6251 3.90547 20.9751 4.25547C21.3251 4.60547 21.5001 5.03303 21.5001 5.53814V15.9227C21.5001 16.4278 21.3251 16.8554 20.9751 17.2054C20.6251 17.5554 20.1975 17.7304 19.6924 17.7304H4.30784ZM4.30784 16.2304H19.6924C19.7693 16.2304 19.8398 16.1984 19.904 16.1343C19.9681 16.0702 20.0001 15.9997 20.0001 15.9227V5.53814C20.0001 5.46121 19.9681 5.39069 19.904 5.32659C19.8398 5.26248 19.7693 5.23042 19.6924 5.23042H4.30784C4.23091 5.23042 4.16038 5.26248 4.09627 5.32659C4.03217 5.39069 4.00012 5.46121 4.00012 5.53814V15.9227C4.00012 15.9997 4.03217 16.0702 4.09627 16.1343C4.16038 16.1984 4.23091 16.2304 4.30784 16.2304Z" fill="#ffffff"/>
</g>
</svg>
