<svg width="20" height="22" viewBox="0 0 20 22" fill="none" xmlns="http://www.w3.org/2000/svg">
<path d="M1.33982 15.9998C0.917087 15.2688 0.588481 14.4873 0.361816 13.6738C0.855124 13.4229 1.26941 13.0404 1.55885 12.5687C1.84828 12.097 2.00158 11.5544 2.00179 11.0009C2.002 10.4475 1.8491 9.90477 1.56002 9.43282C1.27094 8.96088 0.856936 8.57809 0.363816 8.32682C0.815852 6.69231 1.67655 5.19977 2.86482 3.98982C3.32891 4.29155 3.86744 4.45898 4.42079 4.4736C4.97415 4.48822 5.52077 4.34945 6.00015 4.07265C6.47952 3.79586 6.87297 3.39182 7.13694 2.90526C7.40092 2.41871 7.52512 1.8686 7.49582 1.31582C9.13793 0.891445 10.861 0.892133 12.5028 1.31782C12.4738 1.87059 12.5982 2.42061 12.8624 2.90703C13.1266 3.39345 13.5202 3.7973 13.9996 4.07388C14.4791 4.35047 15.0258 4.48901 15.5791 4.47417C16.1324 4.45934 16.6709 4.2917 17.1348 3.98982C17.7138 4.57982 18.2278 5.25082 18.6598 5.99982C19.0928 6.74882 19.4168 7.52982 19.6378 8.32582C19.1445 8.57672 18.7302 8.9592 18.4408 9.43093C18.1514 9.90266 17.9981 10.4453 17.9978 10.9987C17.9976 11.5522 18.1505 12.0949 18.4396 12.5668C18.7287 13.0388 19.1427 13.4216 19.6358 13.6728C19.1838 15.3073 18.3231 16.7999 17.1348 18.0098C16.6707 17.7081 16.1322 17.5407 15.5788 17.526C15.0255 17.5114 14.4789 17.6502 13.9995 17.927C13.5201 18.2038 13.1267 18.6078 12.8627 19.0944C12.5987 19.5809 12.4745 20.131 12.5038 20.6838C10.8617 21.1082 9.13859 21.1075 7.49682 20.6818C7.52586 20.1291 7.40141 19.579 7.13724 19.0926C6.87306 18.6062 6.47946 18.2023 5.99999 17.9258C5.52052 17.6492 4.97387 17.5106 4.42054 17.5255C3.86721 17.5403 3.32878 17.7079 2.86482 18.0098C2.27381 17.4068 1.76141 16.7314 1.33982 15.9998ZM6.99982 16.1958C8.06544 16.8105 8.86666 17.7968 9.24982 18.9658C9.74882 19.0128 10.2498 19.0138 10.7488 18.9668C11.1322 17.7977 11.9338 16.8113 12.9998 16.1968C14.065 15.5805 15.3203 15.3793 16.5248 15.6318C16.8148 15.2238 17.0648 14.7888 17.2728 14.3338C16.4522 13.4173 15.9989 12.23 15.9998 10.9998C15.9998 9.73982 16.4698 8.56282 17.2728 7.66582C17.0633 7.21097 16.8123 6.77646 16.5228 6.36782C15.3191 6.62013 14.0646 6.4193 12.9998 5.80382C11.9342 5.18919 11.133 4.20281 10.7498 3.03382C10.2508 2.98682 9.74982 2.98582 9.25082 3.03282C8.86741 4.20197 8.06582 5.18838 6.99982 5.80282C5.9346 6.41914 4.67929 6.62034 3.47482 6.36782C3.18538 6.77611 2.93495 7.21069 2.72682 7.66582C3.54739 8.58238 4.0007 9.76961 3.99982 10.9998C3.99982 12.2598 3.52982 13.4368 2.72682 14.3338C2.93629 14.7887 3.18736 15.2232 3.47682 15.6318C4.68053 15.3795 5.93502 15.5803 6.99982 16.1958ZM9.99982 13.9998C9.20417 13.9998 8.4411 13.6838 7.8785 13.1211C7.31589 12.5585 6.99982 11.7955 6.99982 10.9998C6.99982 10.2042 7.31589 9.44111 7.8785 8.8785C8.4411 8.31589 9.20417 7.99982 9.99982 7.99982C10.7955 7.99982 11.5585 8.31589 12.1211 8.8785C12.6837 9.44111 12.9998 10.2042 12.9998 10.9998C12.9998 11.7955 12.6837 12.5585 12.1211 13.1211C11.5585 13.6838 10.7955 13.9998 9.99982 13.9998ZM9.99982 11.9998C10.265 11.9998 10.5194 11.8945 10.7069 11.7069C10.8945 11.5194 10.9998 11.265 10.9998 10.9998C10.9998 10.7346 10.8945 10.4803 10.7069 10.2927C10.5194 10.1052 10.265 9.99982 9.99982 9.99982C9.7346 9.99982 9.48025 10.1052 9.29271 10.2927C9.10517 10.4803 8.99982 10.7346 8.99982 10.9998C8.99982 11.265 9.10517 11.5194 9.29271 11.7069C9.48025 11.8945 9.7346 11.9998 9.99982 11.9998Z" fill="black" fill-opacity="0.7"/>
</svg>
