<svg width="30" height="30" viewBox="0 0 30 30" fill="none" xmlns="http://www.w3.org/2000/svg">
<mask id="mask0_1012_2069" style="mask-type:alpha" maskUnits="userSpaceOnUse" x="0" y="0" width="30" height="30">
<rect width="30" height="30" fill="#D9D9D9"/>
</mask>
<g mask="url(#mask0_1012_2069)">
<path d="M3.75 26.25V20H8.75L13.75 15V11C13 10.7292 12.3958 10.276 11.9375 9.64062C11.4792 9.00521 11.25 8.29167 11.25 7.5C11.25 6.45833 11.6146 5.57292 12.3438 4.84375C13.0729 4.11458 13.9583 3.75 15 3.75C16.0417 3.75 16.9271 4.11458 17.6562 4.84375C18.3854 5.57292 18.75 6.45833 18.75 7.5C18.75 8.29167 18.5208 9.00521 18.0625 9.64062C17.6042 10.276 17 10.7292 16.25 11V15L21.25 20H26.25V26.25H20V22.4375L15 17.4375L10 22.4375V26.25H3.75Z" fill="white"/>
</g>
</svg>
