<svg width="176" height="28" viewBox="0 0 176 28" fill="none" xmlns="http://www.w3.org/2000/svg">
<path d="M6.61648 2.27273L12.593 21.0597H12.8224L18.8111 2.27273H24.6065L16.0824 27H9.34517L0.808949 2.27273H6.61648ZM27.4862 27V8.45454H32.6296V27H27.4862ZM30.07 6.06392C29.3053 6.06392 28.6493 5.81037 28.1019 5.30327C27.5626 4.78811 27.293 4.17235 27.293 3.45596C27.293 2.74763 27.5626 2.13991 28.1019 1.63281C28.6493 1.11766 29.3053 0.860084 30.07 0.860084C30.8346 0.860084 31.4866 1.11766 32.0259 1.63281C32.5733 2.13991 32.8469 2.74763 32.8469 3.45596C32.8469 4.17235 32.5733 4.78811 32.0259 5.30327C31.4866 5.81037 30.8346 6.06392 30.07 6.06392ZM52.1802 13.7429L47.4714 14.0327C47.3909 13.6302 47.2179 13.268 46.9522 12.946C46.6866 12.616 46.3365 12.3544 45.9018 12.1612C45.4752 11.96 44.9641 11.8594 44.3684 11.8594C43.5716 11.8594 42.8994 12.0284 42.3521 12.3665C41.8047 12.6965 41.5311 13.1392 41.5311 13.6946C41.5311 14.1373 41.7082 14.5116 42.0623 14.8175C42.4165 15.1233 43.0242 15.3688 43.8855 15.554L47.242 16.2301C49.045 16.6004 50.3893 17.196 51.2747 18.017C52.1601 18.8381 52.6028 19.9167 52.6028 21.2528C52.6028 22.4683 52.2446 23.5348 51.5282 24.4524C50.8199 25.37 49.8459 26.0864 48.6064 26.6016C47.3748 27.1087 45.9541 27.3622 44.3443 27.3622C41.8893 27.3622 39.9333 26.8511 38.4764 25.8288C37.0275 24.7985 36.1783 23.398 35.9288 21.6271L40.9877 21.3615C41.1407 22.1101 41.5109 22.6816 42.0985 23.076C42.6861 23.4624 43.4387 23.6555 44.3564 23.6555C45.2579 23.6555 45.9823 23.4825 46.5297 23.1364C47.0851 22.7822 47.3668 22.3274 47.3748 21.772C47.3668 21.3052 47.1696 20.9228 46.7832 20.625C46.3968 20.3191 45.8012 20.0857 44.9963 19.9247L41.7846 19.2848C39.9735 18.9226 38.6253 18.2947 37.7399 17.4013C36.8625 16.5078 36.4238 15.3688 36.4238 13.9844C36.4238 12.7931 36.7458 11.7668 37.3897 10.9055C38.0417 10.0443 38.9553 9.38021 40.1305 8.91335C41.3137 8.4465 42.6982 8.21307 44.2839 8.21307C46.6262 8.21307 48.4695 8.7081 49.8137 9.69815C51.166 10.6882 51.9548 12.0365 52.1802 13.7429ZM55.8416 27V8.45454H60.9851V27H55.8416ZM58.4254 6.06392C57.6607 6.06392 57.0047 5.81037 56.4574 5.30327C55.9181 4.78811 55.6484 4.17235 55.6484 3.45596C55.6484 2.74763 55.9181 2.13991 56.4574 1.63281C57.0047 1.11766 57.6607 0.860084 58.4254 0.860084C59.1901 0.860084 59.8421 1.11766 60.3814 1.63281C60.9287 2.13991 61.2024 2.74763 61.2024 3.45596C61.2024 4.17235 60.9287 4.78811 60.3814 5.30327C59.8421 5.81037 59.1901 6.06392 58.4254 6.06392ZM73.4846 27.3622C71.6091 27.3622 69.9872 26.9638 68.6188 26.1669C67.2585 25.362 66.208 24.2431 65.4675 22.8104C64.727 21.3696 64.3567 19.6993 64.3567 17.7997C64.3567 15.884 64.727 14.2098 65.4675 12.777C66.208 11.3362 67.2585 10.2173 68.6188 9.42045C69.9872 8.61553 71.6091 8.21307 73.4846 8.21307C75.36 8.21307 76.9779 8.61553 78.3382 9.42045C79.7066 10.2173 80.7611 11.3362 81.5016 12.777C82.2421 14.2098 82.6124 15.884 82.6124 17.7997C82.6124 19.6993 82.2421 21.3696 81.5016 22.8104C80.7611 24.2431 79.7066 25.362 78.3382 26.1669C76.9779 26.9638 75.36 27.3622 73.4846 27.3622ZM73.5087 23.3778C74.3619 23.3778 75.0743 23.1364 75.6458 22.6534C76.2173 22.1624 76.6479 21.4943 76.9377 20.6491C77.2355 19.804 77.3844 18.8421 77.3844 17.7635C77.3844 16.6849 77.2355 15.723 76.9377 14.8778C76.6479 14.0327 76.2173 13.3646 75.6458 12.8736C75.0743 12.3826 74.3619 12.1371 73.5087 12.1371C72.6474 12.1371 71.923 12.3826 71.3354 12.8736C70.7559 13.3646 70.3172 14.0327 70.0194 14.8778C69.7296 15.723 69.5847 16.6849 69.5847 17.7635C69.5847 18.8421 69.7296 19.804 70.0194 20.6491C70.3172 21.4943 70.7559 22.1624 71.3354 22.6534C71.923 23.1364 72.6474 23.3778 73.5087 23.3778ZM91.1003 16.2784V27H85.9569V8.45454H90.8588V11.7266H91.0762C91.4867 10.648 92.1749 9.79474 93.1408 9.1669C94.1067 8.53101 95.2779 8.21307 96.6543 8.21307C97.9422 8.21307 99.065 8.49479 100.023 9.05824C100.981 9.62168 101.725 10.4266 102.257 11.473C102.788 12.5114 103.053 13.7509 103.053 15.1918V27H97.91V16.1094C97.918 14.9744 97.6283 14.089 97.0407 13.4531C96.4531 12.8092 95.6441 12.4872 94.6138 12.4872C93.9216 12.4872 93.3098 12.6361 92.7786 12.9339C92.2554 13.2318 91.8449 13.6664 91.5471 14.2379C91.2573 14.8014 91.1084 15.4815 91.1003 16.2784ZM120.12 16.2784V27H114.976V2.27273H119.975V11.7266H120.192C120.611 10.6319 121.287 9.77462 122.221 9.15483C123.154 8.52699 124.326 8.21307 125.734 8.21307C127.022 8.21307 128.145 8.49479 129.103 9.05824C130.069 9.61364 130.817 10.4145 131.349 11.4609C131.888 12.4993 132.153 13.7429 132.145 15.1918V27H127.002V16.1094C127.01 14.9664 126.72 14.0769 126.133 13.4411C125.553 12.8052 124.74 12.4872 123.694 12.4872C122.993 12.4872 122.374 12.6361 121.834 12.9339C121.303 13.2318 120.885 13.6664 120.579 14.2379C120.281 14.8014 120.128 15.4815 120.12 16.2784ZM148.086 19.1037V8.45454H153.229V27H148.291V23.6314H148.098C147.679 24.718 146.983 25.5914 146.009 26.2514C145.043 26.9115 143.864 27.2415 142.472 27.2415C141.232 27.2415 140.141 26.9598 139.2 26.3963C138.258 25.8329 137.521 25.032 136.99 23.9936C136.467 22.9553 136.201 21.7116 136.193 20.2628V8.45454H141.337V19.3452C141.345 20.4399 141.638 21.3052 142.218 21.9411C142.798 22.5769 143.574 22.8949 144.548 22.8949C145.168 22.8949 145.748 22.754 146.287 22.4723C146.826 22.1825 147.261 21.7559 147.591 21.1925C147.929 20.629 148.094 19.9328 148.086 19.1037ZM157.44 27V2.27273H162.584V11.5696H162.741C162.966 11.0705 163.292 10.5634 163.719 10.0483C164.153 9.52509 164.717 9.09044 165.409 8.74432C166.109 8.39015 166.979 8.21307 168.017 8.21307C169.369 8.21307 170.617 8.56724 171.76 9.27557C172.903 9.97585 173.816 11.0343 174.501 12.451C175.185 13.8596 175.527 15.6264 175.527 17.7514C175.527 19.8201 175.193 21.5668 174.525 22.9915C173.865 24.4081 172.963 25.4827 171.82 26.2152C170.685 26.9396 169.413 27.3018 168.005 27.3018C167.007 27.3018 166.157 27.1368 165.457 26.8068C164.765 26.4768 164.198 26.0623 163.755 25.5632C163.312 25.0561 162.974 24.545 162.741 24.0298H162.511V27H157.44ZM162.475 17.7273C162.475 18.83 162.628 19.7919 162.934 20.6129C163.24 21.4339 163.682 22.0739 164.262 22.5327C164.841 22.9834 165.546 23.2088 166.375 23.2088C167.212 23.2088 167.92 22.9794 168.5 22.5206C169.079 22.0537 169.518 21.4098 169.816 20.5888C170.122 19.7597 170.275 18.8059 170.275 17.7273C170.275 16.6567 170.126 15.715 169.828 14.902C169.53 14.089 169.091 13.4531 168.512 12.9943C167.932 12.5355 167.22 12.3061 166.375 12.3061C165.538 12.3061 164.829 12.5275 164.25 12.9702C163.678 13.4129 163.24 14.0407 162.934 14.8537C162.628 15.6667 162.475 16.6245 162.475 17.7273Z" fill="black"/>
</svg>
