<svg width="20" height="21" viewBox="0 0 20 21" fill="none" xmlns="http://www.w3.org/2000/svg">
<path d="M15.4983 0.502442C16.4151 0.502511 17.3101 0.782646 18.0634 1.30535C18.8167 1.82805 19.3923 2.56838 19.7132 3.42724C20.0342 4.2861 20.0851 5.2225 19.8592 6.11111C19.6333 6.99971 19.1414 7.79811 18.4493 8.39944C18.8043 9.36644 18.9983 10.4124 18.9983 11.5024C18.9975 12.8173 18.7087 14.1161 18.1521 15.3074C17.5954 16.4986 16.7845 17.5534 15.7764 18.3976C14.7683 19.2418 13.5875 19.8548 12.317 20.1936C11.0465 20.5324 9.71717 20.5886 8.42259 20.3584C7.128 20.1282 5.89959 19.6171 4.82376 18.8611C3.74792 18.1052 2.85081 17.1226 2.19552 15.9826C1.54024 14.8427 1.1427 13.573 1.03088 12.2628C0.919051 10.9527 1.09566 9.63398 1.54827 8.39944C1.05836 7.9737 0.666338 7.44702 0.399109 6.85554C0.13188 6.26405 -0.00423592 5.62176 0.000100446 4.97272C0.00443681 4.32368 0.149122 3.68327 0.424231 3.0954C0.69934 2.50754 1.09836 1.98615 1.59392 1.56699C2.08947 1.14784 2.66984 0.840841 3.2952 0.667067C3.92055 0.493294 4.5761 0.456855 5.21686 0.560251C5.85763 0.663647 6.46844 0.904429 7.0074 1.26608C7.54636 1.62773 8.0007 2.10169 8.33927 2.65544C9.43647 2.45071 10.5621 2.45071 11.6593 2.65544C12.0608 1.99746 12.6248 1.45382 13.2971 1.07678C13.9695 0.699728 14.7274 0.501947 15.4983 0.502442ZM15.4983 2.50244C14.6753 2.50244 13.9233 2.90244 13.4603 3.55444L13.3653 3.69844L12.6473 4.87444L11.2923 4.62144C10.5444 4.4819 9.77879 4.46434 9.02527 4.56944L8.70927 4.62144L7.35327 4.87644L6.63327 3.70044C6.44929 3.39909 6.20356 3.14013 5.91227 2.94061C5.62098 2.74108 5.29073 2.60552 4.94326 2.54285C4.5958 2.48018 4.239 2.49182 3.89635 2.577C3.55371 2.66218 3.233 2.81898 2.95533 3.03706C2.67766 3.25514 2.44933 3.52957 2.28538 3.84226C2.12143 4.15496 2.02557 4.49884 2.00412 4.85126C1.98267 5.20368 2.03611 5.55665 2.16093 5.88693C2.28574 6.2172 2.4791 6.51729 2.72827 6.76744L2.85927 6.89044L3.90027 7.79444L3.42527 9.08944C3.0736 10.0496 2.93656 11.0751 3.02378 12.0939C3.111 13.1127 3.42036 14.1001 3.9301 14.9865C4.43985 15.8729 5.1376 16.6368 5.97429 17.2246C6.81098 17.8124 7.76629 18.2098 8.77303 18.3888C9.77977 18.5678 10.8135 18.524 11.8015 18.2606C12.7895 17.9972 13.7078 17.5205 14.4919 16.8641C15.2759 16.2077 15.9066 15.3875 16.3396 14.4612C16.7726 13.5349 16.9975 12.525 16.9983 11.5024C16.9983 10.7864 16.8913 10.0864 16.6843 9.41944L16.5723 9.08944L16.0973 7.79444L17.1373 6.89044C17.522 6.55646 17.7956 6.11289 17.9213 5.61912C18.047 5.12536 18.0188 4.60498 17.8405 4.12768C17.6622 3.65038 17.3424 3.23894 16.9237 2.94848C16.5051 2.65801 16.0078 2.50239 15.4983 2.50244ZM7.99827 11.5024C7.99827 12.0329 8.20898 12.5416 8.58405 12.9167C8.95913 13.2917 9.46784 13.5024 9.99827 13.5024C10.5287 13.5024 11.0374 13.2917 11.4125 12.9167C11.7876 12.5416 11.9983 12.0329 11.9983 11.5024H13.9983C13.9983 12.5633 13.5768 13.5807 12.8267 14.3309C12.0765 15.081 11.0591 15.5024 9.99827 15.5024C8.9374 15.5024 7.91999 15.081 7.16984 14.3309C6.4197 13.5807 5.99827 12.5633 5.99827 11.5024H7.99827Z" fill="#03053D"/>
</svg>
