<svg width="19" height="20" viewBox="0 0 19 20" fill="none" xmlns="http://www.w3.org/2000/svg">
<path d="M4.19247 8.61536L9.00012 0.730835L13.8078 8.61536H4.19247ZM14.5001 19.6154C13.3527 19.6154 12.3799 19.2163 11.5819 18.4183C10.7838 17.6202 10.3848 16.6474 10.3848 15.5C10.3848 14.3526 10.7838 13.3798 11.5819 12.5818C12.3799 11.7837 13.3527 11.3847 14.5001 11.3847C15.6475 11.3847 16.6203 11.7837 17.4184 12.5818C18.2164 13.3798 18.6155 14.3526 18.6155 15.5C18.6155 16.6474 18.2164 17.6202 17.4184 18.4183C16.6203 19.2163 15.6475 19.6154 14.5001 19.6154ZM0.384766 19.1154V11.8847H7.61547V19.1154H0.384766ZM14.4998 18.1154C15.2321 18.1154 15.8511 17.8626 16.3568 17.357C16.8626 16.8514 17.1155 16.2325 17.1155 15.5003C17.1155 14.7681 16.8627 14.1491 16.3571 13.6433C15.8515 13.1375 15.2326 12.8846 14.5004 12.8846C13.7682 12.8846 13.1492 13.1374 12.6434 13.643C12.1376 14.1486 11.8847 14.7675 11.8847 15.4997C11.8847 16.232 12.1375 16.851 12.6431 17.3567C13.1487 17.8625 13.7676 18.1154 14.4998 18.1154ZM1.88472 17.6154H6.11552V13.3846H1.88472V17.6154ZM6.83857 7.11541H11.1617L9.00012 3.63846L6.83857 7.11541Z" fill="#636D7E"/>
</svg>
