<svg width="145" height="22" viewBox="0 0 145 22" fill="none" xmlns="http://www.w3.org/2000/svg">
<path d="M7.784 21L0.728 1.288H5.348L10.416 15.568L15.484 1.288H20.132L13.048 21H7.784ZM22.1858 21V6.664H26.3298V21H22.1858ZM22.1298 4.536V0.335999H26.3298V4.536H22.1298ZM35.3802 21.448C33.4389 21.448 31.8895 21.0093 30.7322 20.132C29.5935 19.2547 28.9589 18.06 28.8282 16.548H32.9162C33.0095 17.108 33.2709 17.556 33.7002 17.892C34.1482 18.2093 34.7175 18.368 35.4082 18.368C36.0429 18.368 36.5562 18.2373 36.9482 17.976C37.3402 17.696 37.5362 17.3507 37.5362 16.94C37.5362 16.5853 37.3682 16.3333 37.0322 16.184C36.7149 16.0347 36.1175 15.8573 35.2402 15.652C35.0909 15.6333 34.9415 15.6053 34.7922 15.568C34.6429 15.5307 34.4935 15.4933 34.3442 15.456C33.1869 15.176 32.2535 14.868 31.5442 14.532C30.8349 14.196 30.2842 13.748 29.8922 13.188C29.5002 12.6093 29.3042 11.8627 29.3042 10.948C29.3042 10.0147 29.5469 9.19333 30.0322 8.484C30.5175 7.756 31.2082 7.196 32.1042 6.804C33.0189 6.412 34.0922 6.216 35.3242 6.216C37.0415 6.216 38.4229 6.62667 39.4682 7.448C40.5135 8.25067 41.1482 9.408 41.3722 10.92H37.3682C37.2749 10.416 37.0602 10.024 36.7242 9.744C36.3882 9.44533 35.9215 9.296 35.3242 9.296C34.7829 9.296 34.3255 9.41733 33.9522 9.66C33.5789 9.884 33.3922 10.192 33.3922 10.584C33.3922 10.9573 33.5602 11.2187 33.8962 11.368C34.2509 11.5173 34.9135 11.6947 35.8842 11.9C35.9402 11.9187 35.9962 11.9373 36.0522 11.956C36.1269 11.956 36.1922 11.9653 36.2482 11.984C37.5175 12.264 38.5349 12.5627 39.3002 12.88C40.0655 13.1973 40.6535 13.6453 41.0642 14.224C41.4935 14.8027 41.7082 15.568 41.7082 16.52C41.7082 17.528 41.4469 18.4053 40.9242 19.152C40.4202 19.88 39.6922 20.4493 38.7402 20.86C37.7882 21.252 36.6682 21.448 35.3802 21.448ZM44.3212 21V6.664H48.4652V21H44.3212ZM44.2652 4.536V0.335999H48.4652V4.536H44.2652ZM58.5515 21.448C57.1142 21.448 55.8262 21.1307 54.6875 20.496C53.5675 19.8613 52.6808 18.9747 52.0275 17.836C51.3928 16.6787 51.0755 15.3533 51.0755 13.86C51.0755 12.3853 51.3928 11.0693 52.0275 9.912C52.6622 8.75467 53.5488 7.84933 54.6875 7.196C55.8262 6.54267 57.1235 6.216 58.5795 6.216C60.0168 6.216 61.2955 6.54267 62.4155 7.196C63.5542 7.84933 64.4315 8.75467 65.0475 9.912C65.6822 11.0693 65.9995 12.3853 65.9995 13.86C65.9995 15.3347 65.6822 16.6507 65.0475 17.808C64.4315 18.9467 63.5542 19.8427 62.4155 20.496C61.2955 21.1307 60.0075 21.448 58.5515 21.448ZM58.5515 17.976C59.2048 17.976 59.7742 17.8173 60.2595 17.5C60.7448 17.164 61.1182 16.688 61.3795 16.072C61.6408 15.456 61.7715 14.7187 61.7715 13.86C61.7715 12.9827 61.6408 12.236 61.3795 11.62C61.1368 10.9853 60.7728 10.5093 60.2875 10.192C59.8022 9.856 59.2235 9.688 58.5515 9.688C57.8795 9.688 57.3008 9.856 56.8155 10.192C56.3302 10.528 55.9568 11.0133 55.6955 11.648C55.4342 12.264 55.3035 13.0013 55.3035 13.86C55.3035 14.7 55.4342 15.428 55.6955 16.044C55.9568 16.66 56.3302 17.136 56.8155 17.472C57.3195 17.808 57.8982 17.976 58.5515 17.976ZM68.6166 21V6.664H72.7606V8.064C73.2273 7.46667 73.7966 7.00933 74.4686 6.692C75.1593 6.37467 75.9246 6.216 76.7646 6.216C78.426 6.216 79.714 6.75733 80.6286 7.84C81.562 8.92267 82.0286 10.3973 82.0286 12.264V21H77.8846V12.516C77.8846 11.6013 77.67 10.9013 77.2406 10.416C76.83 9.93067 76.214 9.688 75.3926 9.688C74.87 9.688 74.4126 9.828 74.0206 10.108C73.6286 10.3693 73.3206 10.752 73.0966 11.256C72.8726 11.7413 72.7606 12.3107 72.7606 12.964V21H68.6166ZM91.8848 21V1.288H96.1128V9.1H105.045V1.288H109.273V21H105.045V12.824H96.1128V21H91.8848ZM118.233 21.448C116.572 21.448 115.275 20.9067 114.341 19.824C113.427 18.7413 112.969 17.2667 112.969 15.4V6.664H117.113V15.148C117.113 16.0627 117.319 16.7627 117.729 17.248C118.159 17.7333 118.784 17.976 119.605 17.976C120.128 17.976 120.585 17.8453 120.977 17.584C121.369 17.304 121.677 16.9213 121.901 16.436C122.125 15.932 122.237 15.3533 122.237 14.7V6.664H126.381V21H122.237V19.6C121.771 20.1973 121.192 20.6547 120.501 20.972C119.829 21.2893 119.073 21.448 118.233 21.448ZM138.072 21.448C137.251 21.448 136.486 21.2987 135.776 21C135.086 20.7013 134.47 20.272 133.928 19.712V21H129.84V0.699999H133.928V7.98C134.47 7.42 135.086 6.99067 135.776 6.692C136.486 6.37467 137.251 6.216 138.072 6.216C139.36 6.216 140.499 6.54267 141.488 7.196C142.496 7.84933 143.28 8.75467 143.84 9.912C144.4 11.0693 144.68 12.3853 144.68 13.86C144.68 15.3347 144.4 16.6507 143.84 17.808C143.28 18.9467 142.496 19.8427 141.488 20.496C140.499 21.1307 139.36 21.448 138.072 21.448ZM137.176 17.976C137.848 17.976 138.427 17.8173 138.912 17.5C139.416 17.164 139.799 16.688 140.06 16.072C140.322 15.456 140.452 14.7187 140.452 13.86C140.452 12.5533 140.163 11.536 139.584 10.808C139.006 10.0613 138.203 9.688 137.176 9.688C136.15 9.688 135.347 10.0613 134.768 10.808C134.208 11.536 133.928 12.5533 133.928 13.86C133.928 14.7187 134.059 15.456 134.32 16.072C134.582 16.688 134.955 17.164 135.44 17.5C135.926 17.8173 136.504 17.976 137.176 17.976Z" fill="#22252B"/>
</svg>
